<svg width="960" height="1200" viewBox="0 0 960 1200" fill="none" xmlns="http://www.w3.org/2000/svg">
  <rect width="960" height="1200" rx="48" fill="#FFF7FB"/>
  <rect x="48" y="48" width="864" height="1104" rx="40" fill="#FFFFFF" stroke="#F3D7E6" stroke-width="4" stroke-dasharray="12 12"/>
  <circle cx="480" cy="420" r="148" fill="#FCE7F3"/>
  <path d="M422 392C422 360.52 447.52 335 479 335H481C512.48 335 538 360.52 538 392V480H422V392Z" fill="#F9A8D4"/>
  <path d="M378 566C378 507.46 425.46 460 484 460C542.54 460 590 507.46 590 566V589H378V566Z" fill="#FBCFE8"/>
  <rect x="240" y="704" width="480" height="24" rx="12" fill="#F9A8D4" fill-opacity="0.55"/>
  <rect x="294" y="754" width="372" height="20" rx="10" fill="#FBCFE8"/>
  <rect x="327" y="796" width="306" height="20" rx="10" fill="#FCE7F3"/>
  <text x="480" y="900" text-anchor="middle" fill="#9D174D" font-family="-apple-system, BlinkMacSystemFont, 'Segoe UI', sans-serif" font-size="44" font-weight="700">Kana image placeholder</text>
  <text x="480" y="960" text-anchor="middle" fill="#BE185D" font-family="-apple-system, BlinkMacSystemFont, 'Segoe UI', sans-serif" font-size="28">Replace frontend/public/kana-placeholder.svg later</text>
</svg>
